HIERARCHY
ROOT Hips
{
  OFFSET 5.84602e-005 68.8428 3.50346
  CHANNELS 6 Xposition Yposition Zposition Zrotation Xrotation Yrotation
  JOINT Spine
  {
    OFFSET 0 8.597 -4.6522
    CHANNELS 3 Zrotation Xrotation Yrotation
    JOINT Spine1
    {
      OFFSET 0 7.8454 0.4098
      CHANNELS 3 Zrotation Xrotation Yrotation
      JOINT Spine2
      {
        OFFSET 0 9.7078 -2.1609
        CHANNELS 3 Zrotation Xrotation Yrotation
        JOINT Neck
        {
          OFFSET 0 21.8761 -0.4549
          CHANNELS 3 Zrotation Xrotation Yrotation
          JOINT Head
          {
            OFFSET 0 12.3537 3.3602
            CHANNELS 3 Zrotation Xrotation Yrotation
            End Site
            {
              OFFSET 0.0001 18.9506 0.5657
            }
          }
        }
        JOINT LeftShoulder
        {
          OFFSET 2.2086 21.1115 7.2329
          CHANNELS 3 Zrotation Xrotation Yrotation
          JOINT LeftArm
          {
            OFFSET 13.1193 3.0282 -4.8998
            CHANNELS 3 Zrotation Xrotation Yrotation
            JOINT LeftForeArm
            {
              OFFSET 27.4081 -0.0973053 -0.2375
              CHANNELS 3 Zrotation Xrotation Yrotation
              JOINT LeftHand
              {
                OFFSET 22.8641 0.0662994 -0.1369
                CHANNELS 3 Zrotation Xrotation Yrotation
                JOINT LeftHandIndex1
                {
                  OFFSET 8.8614 0.775009 2.4612
                  CHANNELS 3 Zrotation Xrotation Yrotation
                  JOINT LeftHandIndex2
                  {
                    OFFSET 3.3146 -0.808304 0.5841
                    CHANNELS 3 Zrotation Xrotation Yrotation
                    JOINT LeftHandIndex3
                    {
                      OFFSET 2.2628 -0.552002 0.3989
                      CHANNELS 3 Zrotation Xrotation Yrotation
                      End Site
                      {
                        OFFSET 1.6102 -0.4807 0.2612
                      }
                    }
                  }
                }
                JOINT LeftHandMiddle1
                {
                  OFFSET 8.9937 0.895004 0.2143
                  CHANNELS 3 Zrotation Xrotation Yrotation
                  JOINT LeftHandMiddle2
                  {
                    OFFSET 4.0984 0.0113983 -0.0242
                    CHANNELS 3 Zrotation Xrotation Yrotation
                    JOINT LeftHandMiddle3
                    {
                      OFFSET 2.2716 0.00689697 -0.0138001
                      CHANNELS 3 Zrotation Xrotation Yrotation
                      End Site
                      {
                        OFFSET 2.0404 -0.1441 0.0027
                      }
                    }
                  }
                }
                JOINT LeftHandRing1
                {
                  OFFSET 8.5234 0.597198 -2.0164
                  CHANNELS 3 Zrotation Xrotation Yrotation
                  JOINT LeftHandRing2
                  {
                    OFFSET 3.7188 -0.188293 -0.2328
                    CHANNELS 3 Zrotation Xrotation Yrotation
                    JOINT LeftHandRing3
                    {
                      OFFSET 2.1191 -0.106598 -0.1332
                      CHANNELS 3 Zrotation Xrotation Yrotation
                      End Site
                      {
                        OFFSET 1.8737 -0.2304 -0.0886
                      }
                    }
                  }
                }
                JOINT LeftHandPinky1
                {
                  OFFSET 7.9094 -0.601089 -3.4825
                  CHANNELS 3 Zrotation Xrotation Yrotation
                  JOINT LeftHandPinky2
                  {
                    OFFSET 2.2874 -0.477005 -0.6314
                    CHANNELS 3 Zrotation Xrotation Yrotation
                    JOINT LeftHandPinky3
                    {
                      OFFSET 1.6774 -0.349396 -0.4633
                      CHANNELS 3 Zrotation Xrotation Yrotation
                      End Site
                      {
                        OFFSET 1.4888 -0.4091 -0.3416
                      }
                    }
                  }
                }
                JOINT LeftHandThumb1
                {
                  OFFSET 1.833 -1.3875 1.3896
                  CHANNELS 3 Zrotation Xrotation Yrotation
                  JOINT LeftHandThumb2
                  {
                    OFFSET 3.4129 -1.121 2.5732
                    CHANNELS 3 Zrotation Xrotation Yrotation
                    JOINT LeftHandThumb3
                    {
                      OFFSET 2.2474 -0.804199 1.6192
                      CHANNELS 3 Zrotation Xrotation Yrotation
                      End Site
                      {
                        OFFSET 1.6527 -0.5689 1.1317
                      }
                    }
                  }
                }
              }
            }
          }
        }
        JOINT RightShoulder
        {
          OFFSET -2.2086 21.1115 7.2329
          CHANNELS 3 Zrotation Xrotation Yrotation
          JOINT RightArm
          {
            OFFSET -13.1216 3.0287 -4.9007
            CHANNELS 3 Zrotation Xrotation Yrotation
            JOINT RightForeArm
            {
              OFFSET -27.4081 -0.0973053 -0.2375
              CHANNELS 3 Zrotation Xrotation Yrotation
              JOINT RightHand
              {
                OFFSET -22.8641 0.0664063 -0.1369
                CHANNELS 3 Zrotation Xrotation Yrotation
                JOINT RightHandIndex1
                {
                  OFFSET -8.8614 0.774994 2.4612
                  CHANNELS 3 Zrotation Xrotation Yrotation
                  JOINT RightHandIndex2
                  {
                    OFFSET -3.3146 -0.808304 0.5841
                    CHANNELS 3 Zrotation Xrotation Yrotation
                    JOINT RightHandIndex3
                    {
                      OFFSET -2.2628 -0.552002 0.3989
                      CHANNELS 3 Zrotation Xrotation Yrotation
                      End Site
                      {
                        OFFSET -1.6102 -0.4807 0.2612
                      }
                    }
                  }
                }
                JOINT RightHandMiddle1
                {
                  OFFSET -8.9937 0.894989 0.2143
                  CHANNELS 3 Zrotation Xrotation Yrotation
                  JOINT RightHandMiddle2
                  {
                    OFFSET -4.0984 0.0113983 -0.0242
                    CHANNELS 3 Zrotation Xrotation Yrotation
                    JOINT RightHandMiddle3
                    {
                      OFFSET -2.2716 0.00691223 -0.0138001
                      CHANNELS 3 Zrotation Xrotation Yrotation
                      End Site
                      {
                        OFFSET -2.0404 -0.1441 0.0027
                      }
                    }
                  }
                }
                JOINT RightHandRing1
                {
                  OFFSET -8.5234 0.597198 -2.0164
                  CHANNELS 3 Zrotation Xrotation Yrotation
                  JOINT RightHandRing2
                  {
                    OFFSET -3.7188 -0.188309 -0.2328
                    CHANNELS 3 Zrotation Xrotation Yrotation
                    JOINT RightHandRing3
                    {
                      OFFSET -2.1191 -0.106598 -0.1332
                      CHANNELS 3 Zrotation Xrotation Yrotation
                      End Site
                      {
                        OFFSET -1.8737 -0.2304 -0.0886
                      }
                    }
                  }
                }
                JOINT RightHandPinky1
                {
                  OFFSET -7.9094 -0.601105 -3.4825
                  CHANNELS 3 Zrotation Xrotation Yrotation
                  JOINT RightHandPinky2
                  {
                    OFFSET -2.2874 -0.477005 -0.6314
                    CHANNELS 3 Zrotation Xrotation Yrotation
                    JOINT RightHandPinky3
                    {
                      OFFSET -1.6774 -0.349396 -0.4633
                      CHANNELS 3 Zrotation Xrotation Yrotation
                      End Site
                      {
                        OFFSET -1.4888 -0.4091 -0.3416
                      }
                    }
                  }
                }
                JOINT RightHandThumb1
                {
                  OFFSET -1.833 -1.38751 1.3896
                  CHANNELS 3 Zrotation Xrotation Yrotation
                  JOINT RightHandThumb2
                  {
                    OFFSET -3.41299 -1.12099 2.5732
                    CHANNELS 3 Zrotation Xrotation Yrotation
                    JOINT RightHandThumb3
                    {
                      OFFSET -2.24741 -0.804108 1.6192
                      CHANNELS 3 Zrotation Xrotation Yrotation
                      End Site
                      {
                        OFFSET -1.6527 -0.5689 1.1317
                      }
                    }
                  }
                }
              }
            }
          }
        }
      }
    }
  }
  JOINT RightUpLeg
  {
    OFFSET -9.1966 3.8861 -0.7581
    CHANNELS 3 Zrotation Xrotation Yrotation
    JOINT RightLeg
    {
      OFFSET -0.7359 -41.0265 0
      CHANNELS 3 Zrotation Xrotation Yrotation
      JOINT RightFoot
      {
        OFFSET 0 -40.2855 0
        CHANNELS 3 Zrotation Xrotation Yrotation
        JOINT RightToeBase
        {
          OFFSET 0 -5.6122 11.7359
          CHANNELS 3 Zrotation Xrotation Yrotation
          End Site
          {
            OFFSET 0 0 7.8731
          }
        }
      }
    }
  }
  JOINT LeftUpLeg
  {
    OFFSET 9.1965 3.8864 -0.7581
    CHANNELS 3 Zrotation Xrotation Yrotation
    JOINT LeftLeg
    {
      OFFSET 0.7359 -41.0268 0
      CHANNELS 3 Zrotation Xrotation Yrotation
      JOINT LeftFoot
      {
        OFFSET 0 -40.2855 0
        CHANNELS 3 Zrotation Xrotation Yrotation
        JOINT LeftToeBase
        {
          OFFSET 0 -5.6122 11.7359
          CHANNELS 3 Zrotation Xrotation Yrotation
          End Site
          {
            OFFSET 0 0 7.8731
          }
        }
      }
    }
  }
}
MOTION
Frames:	4
Frame Time:	0.0333333
39.7391 30.4058 39.5261 0 67.7949 -0 -0.40342 8.23271 -0.0515804 -0.812054 16.4656 -0.0445739 -0.812053 16.4656 -0.0445736 -2.31414e-005 -50.0018 -1.43324e-005 -9.60018e-008 -54.0014 -1.01638e-007 -16.7913 2.74268 8.28016 35.6241 -28.1719 -69.606 3.76076 -10.3648 -14.2522 57.7765 0.622787 -1.04677 -3.18055e-015 1.23246e-014 3.18055e-015 -9.93129e-031 1.19271e-014 4.77083e-015 -3.18055e-015 1.15295e-014 3.18055e-015 -3.18055e-015 1.23246e-014 3.18055e-015 -0.0146022 -8.71676e-005 -1.13822e-006 -5.36862e-007 -6.0737e-007 6.52834e-007 -3.18055e-015 1.23246e-014 3.18055e-015 -0.0187311 -0.00117427 6.52781e-005 -5.36499e-007 -6.07299e-007 6.52812e-007 -3.18055e-015 1.23246e-014 3.18055e-015 -0.0121708 -0.00322331 0.000676097 -6.36111e-015 -7.95139e-016 -1.59028e-015 -3.18055e-015 1.23246e-014 3.18055e-015 -9.93129e-031 1.19271e-014 4.77083e-015 -3.18055e-015 1.15295e-014 3.18055e-015 16.2913 2.87302 -7.4988 -35.6318 -28.1686 69.5868 -3.76459 -10.3651 14.2483 -57.8578 0.458355 1.10287 -6.36111e-015 0 -3.18055e-015 -1.27222e-014 -7.95139e-016 1.59028e-015 -6.36111e-015 0 -3.18055e-015 -6.36111e-015 0 -3.18055e-015 0.0149542 -9.06929e-005 2.73437e-006 6.36111e-015 5.56597e-015 -3.18055e-015 -6.36111e-015 0 -3.18055e-015 0.0189945 -0.00119011 -5.17045e-005 -3.18055e-015 3.97569e-015 -3.18055e-015 -6.36111e-015 0 -3.18055e-015 0.0122261 -0.00323779 -0.000678681 -9.54166e-015 7.95139e-016 -3.18055e-015 -6.36111e-015 0 -3.18055e-015 -1.27222e-014 -7.95139e-016 1.59028e-015 -6.36111e-015 0 -3.18055e-015 -19.4806 -71.1857 -24.9244 -165.245 79.315 164.627 -11.6981 48.3253 3.43853 -1.57167e-007 -5.52788e-009 -8.44887e-007 19.366 -71.2129 24.7054 165.771 79.319 -165.122 11.6808 48.3133 -3.46014 -1.61616e-007 -3.25019e-006 -4.20317e-008 
39.7391 30.3719 39.582 0 67.595 -0 -0.403929 8.36911 -0.0496903 -0.813688 16.7384 -0.0396321 -0.813689 16.7384 -0.039632 -2.50244e-005 -50.0014 -1.67025e-005 -4.06253e-009 -54.0014 -1.59509e-007 -16.6287 2.40065 8.04944 35.6242 -28.172 -69.6061 3.76073 -10.3648 -14.2522 57.8933 0.588996 -0.992264 9.54166e-015 -7.95139e-016 3.18055e-015 3.18055e-015 3.97569e-016 3.18055e-015 3.18055e-015 1.98785e-015 1.59028e-015 9.54166e-015 -7.95139e-016 3.18055e-015 -0.0146631 -8.88553e-005 3.32287e-006 6.36111e-015 3.57812e-015 1.59028e-015 9.54166e-015 -7.95139e-016 3.18055e-015 -0.0187496 -0.00117688 6.3866e-005 5.41033e-007 5.94589e-007 -6.62943e-007 9.54166e-015 -7.95139e-016 3.18055e-015 -0.0123344 -0.00326555 0.000680737 3.18055e-015 -1.19271e-015 1.59028e-015 9.54166e-015 -7.95139e-016 3.18055e-015 3.18055e-015 3.97569e-016 3.18055e-015 3.18055e-015 1.98785e-015 1.59028e-015 16.1569 2.52238 -7.31082 -35.6318 -28.1686 69.5868 -3.76457 -10.3651 14.2483 -57.9705 0.433211 1.04528 -0 -2.38542e-015 -0 -0 -2.38542e-015 -0 -0 -2.38542e-015 -0 -0 -2.38542e-015 -0 0.0149744 -9.00053e-005 4.29243e-006 3.18055e-015 0 3.18055e-015 -0 -2.38542e-015 -0 0.0189772 -0.00119043 -6.6151e-005 -0 -2.38542e-015 -0 -0 -2.38542e-015 -0 0.0122068 -0.00323523 -0.00067104 -3.18055e-015 0 -0 -0 -2.38542e-015 -0 -0 -2.38542e-015 -0 -0 -2.38542e-015 -0 -19.2318 -70.919 -24.6694 -165.246 79.3136 164.629 -11.6981 48.3256 3.43859 -2.03183e-007 -1.012e-008 6.45401e-008 19.1094 -70.942 24.4439 165.768 79.322 -165.117 11.6808 48.3136 -3.4602 2.16363e-007 3.25047e-006 9.19492e-007 
39.7391 30.338 39.638 0 67.395 -0 -0.404434 8.50548 -0.0477945 -0.815328 17.0111 -0.0346711 -0.815328 17.0111 -0.0346713 5.3211e-006 -50.0014 2.89987e-006 -5.17015e-007 -54.0014 -6.11299e-007 -16.4676 2.05807 7.81979 35.6241 -28.172 -69.606 3.76075 -10.3648 -14.2522 58.01 0.555319 -0.937689 1.10348e-031 3.97569e-015 -1.59028e-015 -3.18055e-015 2.78299e-015 -3.18055e-015 -3.18055e-015 3.57812e-015 -3.18055e-015 1.10348e-031 3.97569e-015 -1.59028e-015 -0.0146306 -8.63826e-005 -7.51959e-006 -6.36111e-015 0 3.18055e-015 1.10348e-031 3.97569e-015 -1.59028e-015 -0.0188139 -0.00118086 6.34076e-005 3.31043e-032 1.19271e-015 -1.59028e-015 1.10348e-031 3.97569e-015 -1.59028e-015 -0.0123283 -0.0032613 0.000676859 3.18055e-015 -1.19271e-015 -3.18055e-015 1.10348e-031 3.97569e-015 -1.59028e-015 -3.18055e-015 2.78299e-015 -3.18055e-015 -3.18055e-015 3.57812e-015 -3.18055e-015 16.0238 2.17141 -7.12375 -35.6318 -28.1686 69.5868 -3.76459 -10.3652 14.2483 -58.0832 0.408157 0.987583 -6.36111e-015 -6.36111e-015 3.18055e-015 -3.18055e-015 -4.77083e-015 1.59028e-015 3.18055e-015 -3.97569e-015 -0 -6.36111e-015 -6.36111e-015 3.18055e-015 0.0149896 -9.27851e-005 7.37556e-007 -9.54166e-015 -1.59028e-015 -1.59028e-015 -6.36111e-015 -6.36111e-015 3.18055e-015 0.0189985 -0.00119111 -6.13075e-005 -6.62086e-032 -7.95139e-016 -4.77083e-015 -6.36111e-015 -6.36111e-015 3.18055e-015 0.0121958 -0.00322882 -0.000670616 3.18055e-015 1.59028e-015 3.18055e-015 -6.36111e-015 -6.36111e-015 3.18055e-015 -3.18055e-015 -4.77083e-015 1.59028e-015 3.18055e-015 -3.97569e-015 -0 -18.9855 -70.6508 -24.4174 -165.246 79.314 164.629 -11.6981 48.3259 3.43867 -1.65013e-007 8.64089e-007 -1.55704e-007 18.8672 -70.673 24.1963 165.768 79.3221 -165.117 11.6808 48.3139 -3.46026 3.32028e-007 -1.53698e-008 3.42061e-007 
39.7391 30.3042 39.694 0 67.1951 -0 -0.404931 8.64179 -0.0458937 -0.816974 17.2837 -0.0296904 -0.816975 17.2837 -0.0296907 7.60072e-007 -50.0017 1.91857e-007 -2.78063e-007 -54.0014 -7.1134e-008 -16.3078 1.71483 7.59116 35.6242 -28.172 -69.6061 3.76074 -10.3648 -14.2522 58.1268 0.521754 -0.88306 -5.51746e-007 -5.6875e-007 6.83007e-007 5.51746e-007 5.6875e-007 -6.83007e-007 -5.51746e-007 -5.6875e-007 6.83007e-007 -5.51746e-007 -5.6875e-007 6.83007e-007 -0.0145948 -8.80961e-005 -3.11216e-006 -1.76556e-031 3.18055e-015 3.18055e-015 -5.51746e-007 -5.6875e-007 6.83007e-007 -0.0187967 -0.00117785 6.00352e-005 3.18055e-015 1.59028e-015 -0 -5.51746e-007 -5.6875e-007 6.83007e-007 -0.0122179 -0.00323384 0.000668176 9.54166e-015 7.95139e-016 1.59028e-015 -5.51746e-007 -5.6875e-007 6.83007e-007 5.51746e-007 5.6875e-007 -6.83007e-007 -5.51746e-007 -5.6875e-007 6.83007e-007 15.8918 1.82001 -6.93755 -35.6318 -28.1686 69.5868 -3.76458 -10.3651 14.2483 -58.196 0.383232 0.929855 2.20695e-031 7.95139e-015 -1.59028e-015 -3.18055e-015 6.36111e-015 -0 0 7.15625e-015 -0 2.20695e-031 7.95139e-015 -1.59028e-015 0.0149712 -9.03464e-005 1.04422e-005 5.42583e-007 3.82255e-008 -3.14436e-006 2.20695e-031 7.95139e-015 -1.59028e-015 0.018957 -0.00118767 -5.66643e-005 9.54166e-015 1.59028e-015 -1.59028e-015 2.20695e-031 7.95139e-015 -1.59028e-015 0.0122384 -0.00323845 -0.000680867 -5.42135e-007 -3.78881e-008 3.14446e-006 2.20695e-031 7.95139e-015 -1.59028e-015 -3.18055e-015 6.36111e-015 -0 0 7.15625e-015 -0 -18.7412 -70.3808 -24.1676 -165.244 79.3162 164.626 -11.6981 48.3261 3.43871 -1.76407e-007 -9.78157e-009 5.02929e-007 18.6395 -70.4058 23.9626 165.77 79.3193 -165.121 11.6808 48.3142 -3.46033 1.15989e-008 -8.64015e-007 -6.62075e-007 
